<mxfile host="app.diagrams.net" modified="2024-02-08T15:03:34.657Z" agent="Mozilla/5.0 (Macintosh; Intel Mac OS X 10.15; rv:122.0) Gecko/20100101 Firefox/122.0" etag="FM2OB249nI5bnMKJF8yu" version="23.1.1" type="device">
  <diagram name="Page-1" id="650XvY37gCv_VNDG9vCg">
    <mxGraphModel dx="1158" dy="1083" grid="1" gridSize="10" guides="1" tooltips="1" connect="1" arrows="1" fold="1" page="1" pageScale="1" pageWidth="850" pageHeight="1100" math="0" shadow="0">
      <root>
        <mxCell id="0" />
        <mxCell id="1" parent="0" />
        <mxCell id="9l4oot3ggPBuZf4lOwHK-52" style="edgeStyle=orthogonalEdgeStyle;rounded=0;orthogonalLoop=1;jettySize=auto;html=1;entryX=0.5;entryY=0;entryDx=0;entryDy=0;" parent="1" edge="1">
          <mxGeometry relative="1" as="geometry">
            <mxPoint x="390" y="310" as="sourcePoint" />
            <mxPoint x="390" y="400" as="targetPoint" />
          </mxGeometry>
        </mxCell>
        <mxCell id="9l4oot3ggPBuZf4lOwHK-53" value="&lt;div&gt;host metric&lt;/div&gt;" style="edgeLabel;html=1;align=center;verticalAlign=middle;resizable=0;points=[];" parent="9l4oot3ggPBuZf4lOwHK-52" vertex="1" connectable="0">
          <mxGeometry x="-0.3556" y="4" relative="1" as="geometry">
            <mxPoint as="offset" />
          </mxGeometry>
        </mxCell>
        <mxCell id="9l4oot3ggPBuZf4lOwHK-4" value="" style="rounded=0;whiteSpace=wrap;html=1;" parent="1" vertex="1">
          <mxGeometry x="230" y="120" width="430" height="190" as="geometry" />
        </mxCell>
        <mxCell id="9l4oot3ggPBuZf4lOwHK-5" value="" style="group" parent="1" vertex="1" connectable="0">
          <mxGeometry x="290" y="110" width="350" height="180" as="geometry" />
        </mxCell>
        <mxCell id="9l4oot3ggPBuZf4lOwHK-2" value="" style="rounded=0;whiteSpace=wrap;html=1;" parent="9l4oot3ggPBuZf4lOwHK-5" vertex="1">
          <mxGeometry x="-40" y="60" width="390" height="120" as="geometry" />
        </mxCell>
        <mxCell id="9l4oot3ggPBuZf4lOwHK-3" value="Application" style="text;html=1;strokeColor=none;fillColor=none;align=center;verticalAlign=middle;whiteSpace=wrap;rounded=0;" parent="9l4oot3ggPBuZf4lOwHK-5" vertex="1">
          <mxGeometry x="96.86999999999999" y="58.13" width="116.25" height="63.75" as="geometry" />
        </mxCell>
        <mxCell id="9l4oot3ggPBuZf4lOwHK-7" value="&lt;div&gt;Metric Library&lt;br&gt;&lt;/div&gt;" style="html=1;whiteSpace=wrap;" parent="9l4oot3ggPBuZf4lOwHK-5" vertex="1">
          <mxGeometry x="-20" y="110" width="110" height="50" as="geometry" />
        </mxCell>
        <mxCell id="9l4oot3ggPBuZf4lOwHK-6" value="&lt;div&gt;Logging library&lt;/div&gt;" style="html=1;whiteSpace=wrap;" parent="9l4oot3ggPBuZf4lOwHK-5" vertex="1">
          <mxGeometry x="100" y="110" width="110" height="50" as="geometry" />
        </mxCell>
        <mxCell id="9l4oot3ggPBuZf4lOwHK-8" value="Tracing Library" style="html=1;whiteSpace=wrap;" parent="9l4oot3ggPBuZf4lOwHK-5" vertex="1">
          <mxGeometry x="220" y="110" width="110" height="50" as="geometry" />
        </mxCell>
        <mxCell id="9l4oot3ggPBuZf4lOwHK-10" value="Bare Metal / VM / Pod / Container" style="text;html=1;strokeColor=none;fillColor=none;align=center;verticalAlign=middle;whiteSpace=wrap;rounded=0;" parent="9l4oot3ggPBuZf4lOwHK-5" vertex="1">
          <mxGeometry x="59.989999999999995" y="20" width="190" height="30" as="geometry" />
        </mxCell>
        <mxCell id="Z2qCk3zVda_sx7KjIv7V-1" style="edgeStyle=orthogonalEdgeStyle;rounded=0;orthogonalLoop=1;jettySize=auto;html=1;" edge="1" parent="1" source="9l4oot3ggPBuZf4lOwHK-49" target="9l4oot3ggPBuZf4lOwHK-63">
          <mxGeometry relative="1" as="geometry" />
        </mxCell>
        <mxCell id="Z2qCk3zVda_sx7KjIv7V-2" style="edgeStyle=orthogonalEdgeStyle;rounded=0;orthogonalLoop=1;jettySize=auto;html=1;entryX=0.5;entryY=0;entryDx=0;entryDy=0;" edge="1" parent="1" source="9l4oot3ggPBuZf4lOwHK-49" target="9l4oot3ggPBuZf4lOwHK-65">
          <mxGeometry relative="1" as="geometry" />
        </mxCell>
        <mxCell id="Z2qCk3zVda_sx7KjIv7V-3" style="edgeStyle=orthogonalEdgeStyle;rounded=0;orthogonalLoop=1;jettySize=auto;html=1;entryX=0.5;entryY=0;entryDx=0;entryDy=0;" edge="1" parent="1" source="9l4oot3ggPBuZf4lOwHK-49" target="9l4oot3ggPBuZf4lOwHK-64">
          <mxGeometry relative="1" as="geometry" />
        </mxCell>
        <mxCell id="9l4oot3ggPBuZf4lOwHK-49" value="OpenTelemetry Collector" style="html=1;whiteSpace=wrap;" parent="1" vertex="1">
          <mxGeometry x="230" y="400" width="430" height="50" as="geometry" />
        </mxCell>
        <mxCell id="9l4oot3ggPBuZf4lOwHK-50" style="edgeStyle=orthogonalEdgeStyle;rounded=0;orthogonalLoop=1;jettySize=auto;html=1;entryX=0.223;entryY=0.02;entryDx=0;entryDy=0;entryPerimeter=0;" parent="1" source="9l4oot3ggPBuZf4lOwHK-7" target="9l4oot3ggPBuZf4lOwHK-49" edge="1">
          <mxGeometry relative="1" as="geometry" />
        </mxCell>
        <mxCell id="9l4oot3ggPBuZf4lOwHK-51" value="application metric" style="edgeLabel;html=1;align=center;verticalAlign=middle;resizable=0;points=[];" parent="9l4oot3ggPBuZf4lOwHK-50" vertex="1" connectable="0">
          <mxGeometry x="0.2267" y="2" relative="1" as="geometry">
            <mxPoint x="-3" y="10" as="offset" />
          </mxGeometry>
        </mxCell>
        <mxCell id="9l4oot3ggPBuZf4lOwHK-54" style="edgeStyle=orthogonalEdgeStyle;rounded=0;orthogonalLoop=1;jettySize=auto;html=1;" parent="1" source="9l4oot3ggPBuZf4lOwHK-6" target="9l4oot3ggPBuZf4lOwHK-49" edge="1">
          <mxGeometry relative="1" as="geometry" />
        </mxCell>
        <mxCell id="9l4oot3ggPBuZf4lOwHK-55" value="&lt;div&gt;application log&lt;/div&gt;" style="edgeLabel;html=1;align=center;verticalAlign=middle;resizable=0;points=[];" parent="9l4oot3ggPBuZf4lOwHK-54" vertex="1" connectable="0">
          <mxGeometry x="0.2923" y="3" relative="1" as="geometry">
            <mxPoint x="-3" y="6" as="offset" />
          </mxGeometry>
        </mxCell>
        <mxCell id="9l4oot3ggPBuZf4lOwHK-56" style="edgeStyle=orthogonalEdgeStyle;rounded=0;orthogonalLoop=1;jettySize=auto;html=1;" parent="1" source="9l4oot3ggPBuZf4lOwHK-4" edge="1">
          <mxGeometry relative="1" as="geometry">
            <mxPoint x="500" y="400" as="targetPoint" />
            <Array as="points">
              <mxPoint x="500" y="350" />
              <mxPoint x="500" y="350" />
            </Array>
          </mxGeometry>
        </mxCell>
        <mxCell id="9l4oot3ggPBuZf4lOwHK-57" value="&lt;div&gt;host log&lt;/div&gt;" style="edgeLabel;html=1;align=center;verticalAlign=middle;resizable=0;points=[];" parent="9l4oot3ggPBuZf4lOwHK-56" vertex="1" connectable="0">
          <mxGeometry x="0.1818" y="-1" relative="1" as="geometry">
            <mxPoint x="1" y="-23" as="offset" />
          </mxGeometry>
        </mxCell>
        <mxCell id="9l4oot3ggPBuZf4lOwHK-58" style="edgeStyle=orthogonalEdgeStyle;rounded=0;orthogonalLoop=1;jettySize=auto;html=1;entryX=0.779;entryY=0;entryDx=0;entryDy=0;entryPerimeter=0;" parent="1" source="9l4oot3ggPBuZf4lOwHK-8" target="9l4oot3ggPBuZf4lOwHK-49" edge="1">
          <mxGeometry relative="1" as="geometry" />
        </mxCell>
        <mxCell id="9l4oot3ggPBuZf4lOwHK-59" value="&lt;div&gt;application trace&lt;/div&gt;" style="edgeLabel;html=1;align=center;verticalAlign=middle;resizable=0;points=[];" parent="9l4oot3ggPBuZf4lOwHK-58" vertex="1" connectable="0">
          <mxGeometry x="0.0154" y="1" relative="1" as="geometry">
            <mxPoint x="-1" y="24" as="offset" />
          </mxGeometry>
        </mxCell>
        <mxCell id="9l4oot3ggPBuZf4lOwHK-66" style="edgeStyle=orthogonalEdgeStyle;rounded=0;orthogonalLoop=1;jettySize=auto;html=1;entryX=0;entryY=0.5;entryDx=0;entryDy=0;" parent="1" source="9l4oot3ggPBuZf4lOwHK-63" target="9l4oot3ggPBuZf4lOwHK-64" edge="1">
          <mxGeometry relative="1" as="geometry" />
        </mxCell>
        <mxCell id="9l4oot3ggPBuZf4lOwHK-63" value="Metric platform" style="html=1;whiteSpace=wrap;" parent="1" vertex="1">
          <mxGeometry x="180" y="500" width="110" height="50" as="geometry" />
        </mxCell>
        <mxCell id="9l4oot3ggPBuZf4lOwHK-67" style="edgeStyle=orthogonalEdgeStyle;rounded=0;orthogonalLoop=1;jettySize=auto;html=1;entryX=1;entryY=0.5;entryDx=0;entryDy=0;" parent="1" source="9l4oot3ggPBuZf4lOwHK-64" target="9l4oot3ggPBuZf4lOwHK-63" edge="1">
          <mxGeometry relative="1" as="geometry" />
        </mxCell>
        <mxCell id="9l4oot3ggPBuZf4lOwHK-70" value="correlated" style="edgeLabel;html=1;align=center;verticalAlign=middle;resizable=0;points=[];" parent="9l4oot3ggPBuZf4lOwHK-67" vertex="1" connectable="0">
          <mxGeometry x="0.12" y="-3" relative="1" as="geometry">
            <mxPoint y="3" as="offset" />
          </mxGeometry>
        </mxCell>
        <mxCell id="9l4oot3ggPBuZf4lOwHK-68" style="edgeStyle=orthogonalEdgeStyle;rounded=0;orthogonalLoop=1;jettySize=auto;html=1;entryX=0;entryY=0.5;entryDx=0;entryDy=0;" parent="1" source="9l4oot3ggPBuZf4lOwHK-64" target="9l4oot3ggPBuZf4lOwHK-65" edge="1">
          <mxGeometry relative="1" as="geometry" />
        </mxCell>
        <mxCell id="9l4oot3ggPBuZf4lOwHK-64" value="Log aggregator" style="html=1;whiteSpace=wrap;" parent="1" vertex="1">
          <mxGeometry x="390" y="500" width="110" height="50" as="geometry" />
        </mxCell>
        <mxCell id="9l4oot3ggPBuZf4lOwHK-69" style="edgeStyle=orthogonalEdgeStyle;rounded=0;orthogonalLoop=1;jettySize=auto;html=1;entryX=1;entryY=0.5;entryDx=0;entryDy=0;" parent="1" source="9l4oot3ggPBuZf4lOwHK-65" target="9l4oot3ggPBuZf4lOwHK-64" edge="1">
          <mxGeometry relative="1" as="geometry" />
        </mxCell>
        <mxCell id="9l4oot3ggPBuZf4lOwHK-71" value="correlated" style="edgeLabel;html=1;align=center;verticalAlign=middle;resizable=0;points=[];" parent="9l4oot3ggPBuZf4lOwHK-69" vertex="1" connectable="0">
          <mxGeometry x="-0.2431" y="3" relative="1" as="geometry">
            <mxPoint x="-12" y="-3" as="offset" />
          </mxGeometry>
        </mxCell>
        <mxCell id="9l4oot3ggPBuZf4lOwHK-65" value="Tracing platform" style="html=1;whiteSpace=wrap;" parent="1" vertex="1">
          <mxGeometry x="600" y="500" width="110" height="50" as="geometry" />
        </mxCell>
      </root>
    </mxGraphModel>
  </diagram>
</mxfile>
